# xmcd
#
# Track frame offsets:
#	150
#	28423
#	45239
#	61944
#	91829
#	112996
#	127085
#	140241
#	155515
#	168261
#	180154
#	192116
#	218757
#	240523
#	259249
#	281586
#	291168
#	303470
#	316197
#
# Disc length: 4394 seconds
#
# Revision: 1
# Processed by: cddbd v1.5.1PL0 Copyright (c) Steve Scherf et al.
# Submitted via: audiograbber 1.83.01
#
DISCID=0c112813
DTITLE=Stevie Wonder - Greatest Hits
DYEAR=2000
DGENRE=Soul
TTITLE0=I Just Called To Say I Love You
TTITLE1=Part-Time Lover
TTITLE2=Ebony And Ivory
TTITLE3=Don't Drive Drunk
TTITLE4=The Woman In Red
TTITLE5=Yester-Me, Yester-You, Yesterday
TTITLE6=My Cherie Amour
TTITLE7=Isn't She Lovely
TTITLE8=For Once In My Life
TTITLE9=I Was Made To Love Her
TTITLE10=Signed, Sealed, Delivered, I'm Yours
TTITLE11=Happy Birthday
TTITLE12=Master Blaster
TTITLE13=Kiss Lonely Goodbye
TTITLE14=It's You
TTITLE15=Contract On Love
TTITLE16=Hey Love
TTITLE17=Shoo-Be-Doo-Be-Doo-Day
TTITLE18=If You Really Love Me
EXTD=
EXTT0=
EXTT1=
EXTT2=
EXTT3=
EXTT4=
EXTT5=
EXTT6=
EXTT7=
EXTT8=
EXTT9=
EXTT10=
EXTT11=
EXTT12=
EXTT13=
EXTT14=
EXTT15=
EXTT16=
EXTT17=
EXTT18=
PLAYORDER=
